<?xml version="1.0" encoding="utf-8"?>
<!-- Generator: Adobe Illustrator 26.1.0, SVG Export Plug-In . SVG Version: 6.00 Build 0)  -->
<svg version="1.1" id="Layer_1" xmlns="http://www.w3.org/2000/svg" xmlns:xlink="http://www.w3.org/1999/xlink" x="0px" y="0px"
	 viewBox="0 0 841.89 595.28" style="enable-background:new 0 0 841.89 595.28;" xml:space="preserve">
<style type="text/css">
	.st0{fill:#FFFFFF;}
	.st1{fill:#2F6FCC;}
	.st2{fill:none;stroke:#2F6FCC;stroke-width:0.25;stroke-miterlimit:10;}
</style>
<rect x="125.58" y="1.43" class="st0" width="594.38" height="594.38"/>
<g>
	<g>
		<path class="st1" d="M429.63,248.16v5.75h-7.81v23.72h-7.18v-23.72h-7.81v-5.75H429.63z"/>
		<path class="st1" d="M439.37,253.91v5.96h9.61v5.54h-9.61v6.46h10.87v5.75h-18.05v-29.47h18.05v5.75H439.37z"/>
		<path class="st1" d="M472.2,272.42h-11l-1.76,5.21h-7.51l10.66-29.47h8.31l10.66,29.47h-7.6L472.2,272.42z M470.35,266.88
			l-3.65-10.79l-3.61,10.79H470.35z"/>
		<path class="st1" d="M491.38,271.75h12.68v5.88h-20.82v-5.46l12.59-18.13h-12.59v-5.88h20.82v5.46L491.38,271.75z"/>
		<path class="st1" d="M532.98,248.16l-10.2,19.73v9.74h-7.18v-9.74l-10.2-19.73h8.14l5.71,12.34l5.67-12.34H532.98z"/>
		<path class="st1" d="M429.63,298.53v5.75h-7.81V328h-7.18v-23.72h-7.81v-5.75H429.63z"/>
		<path class="st1" d="M439.37,304.28v5.96h9.61v5.54h-9.61v6.46h10.87V328h-18.05v-29.47h18.05v5.75H439.37z"/>
		<path class="st1" d="M454.52,305.44c1.26-2.28,3.01-4.06,5.27-5.33s4.81-1.91,7.66-1.91c3.5,0,6.49,0.92,8.98,2.77
			c2.49,1.85,4.16,4.37,5,7.56h-7.89c-0.59-1.23-1.42-2.17-2.5-2.81c-1.08-0.64-2.3-0.96-3.67-0.96c-2.21,0-4,0.77-5.37,2.31
			s-2.06,3.6-2.06,6.17c0,2.58,0.69,4.63,2.06,6.17c1.37,1.54,3.16,2.31,5.37,2.31c1.37,0,2.6-0.32,3.67-0.96s1.91-1.58,2.5-2.81
			h7.89c-0.84,3.19-2.5,5.7-5,7.53c-2.49,1.83-5.49,2.75-8.98,2.75c-2.85,0-5.41-0.64-7.66-1.91s-4.01-3.04-5.27-5.31
			c-1.26-2.27-1.89-4.86-1.89-7.77C452.63,310.31,453.26,307.72,454.52,305.44z"/>
		<path class="st1" d="M510.31,298.53V328h-7.18v-12.13h-11.17V328h-7.18v-29.47h7.18v11.54h11.17v-11.54H510.31z"/>
	</g>
	<g>
		<path class="st1" d="M354.89,248.16h-26.4h-19.58v12.35c0,50.49,40.77,91.63,91.12,92.23v-24.72
			c-32.52-0.54-59.53-24.16-65.29-55.17h5.84c13.68,19.8,34.88,34.01,59.45,38.46v-25.27c-9.74-2.46-18.64-7.02-26.19-13.19
			C365.75,266.25,359.22,257.8,354.89,248.16z"/>
		<path class="st1" d="M388.75,272.86h11.28v-4.69c0-11.05-8.96-20.01-20.01-20.01h-19.27c2.79,6.21,6.49,11.92,10.93,16.97
			C376,270.04,382.21,272.86,388.75,272.86z"/>
	</g>
</g>
<g>
	<circle class="st2" cx="537.74" cy="250.58" r="2.43"/>
	<g>
		<path class="st1" d="M538.48,251.99l-0.72-1.21h-0.54v1.21h-0.29v-2.91h0.87c0.33,0,0.57,0.08,0.74,0.23
			c0.17,0.16,0.25,0.36,0.25,0.61c0,0.21-0.06,0.39-0.18,0.54c-0.12,0.15-0.3,0.25-0.53,0.29l0.75,1.24H538.48z M537.22,250.54h0.59
			c0.23,0,0.4-0.06,0.51-0.17s0.17-0.26,0.17-0.45c0-0.19-0.06-0.34-0.17-0.44c-0.11-0.1-0.29-0.16-0.52-0.16h-0.58V250.54z"/>
	</g>
</g>
</svg>
